HIERARCHY
ROOT SpineBase
{
  OFFSET 0.000000 0.000000 0.000000
  CHANNELS 6 Xposition Yposition Zposition Zrotation Xrotation Yrotation
  JOINT SpineMid
  {
    OFFSET 0.000000 29.967179 0.000000
    CHANNELS 3 Zrotation Xrotation Yrotation
    JOINT SpineShoulder
    {
      OFFSET -0.031864 22.418235 -0.785061
      CHANNELS 3 Zrotation Xrotation Yrotation
      JOINT Neck
      {
        OFFSET 0.024824 7.455056 -0.584299
        CHANNELS 3 Zrotation Xrotation Yrotation
        JOINT Head
        {
          OFFSET -4.035483 13.547849 -0.747738
          CHANNELS 3 Zrotation Xrotation Yrotation
          End Site
          {
            OFFSET 0 0 0
          }
        }
      }
      JOINT ShoulderLeft
      {
        OFFSET -16.378081 -4.694594 4.515052
        CHANNELS 3 Zrotation Xrotation Yrotation
        JOINT ElbowLeft
        {
          OFFSET -1.285631 -24.562178 1.038336
          CHANNELS 3 Zrotation Xrotation Yrotation
          JOINT WristLeft
          {
            OFFSET 1.951453 -22.635694 -7.656000
            CHANNELS 3 Zrotation Xrotation Yrotation
            JOINT HandLeft
            {
              OFFSET 0.720955 -3.680420 -0.577048
              CHANNELS 3 Zrotation Xrotation Yrotation
              JOINT HandTipLeft
              {
                OFFSET 0.404469 -5.530672 -0.849662
                CHANNELS 3 Zrotation Xrotation Yrotation
                End Site
                {
                  OFFSET 0 0 0
                }
              }
              JOINT ThumbLeft
              {
                OFFSET 3.741624 0.767932 -2.152725
                CHANNELS 3 Zrotation Xrotation Yrotation
                End Site
                {
                  OFFSET 0 0 0
                }
              }
            }
          }
        }
      }
      JOINT ShoulderRight
      {
        OFFSET 15.279451 -2.512682 -6.689358
        CHANNELS 3 Zrotation Xrotation Yrotation
        JOINT ElbowRight
        {
          OFFSET 5.237156 -24.163071 -1.119382
          CHANNELS 3 Zrotation Xrotation Yrotation
          JOINT WristRight
          {
            OFFSET -1.765079 -20.559655 -6.099857
            CHANNELS 3 Zrotation Xrotation Yrotation
            JOINT HandRight
            {
              OFFSET -1.596045 -5.550717 -1.215714
              CHANNELS 3 Zrotation Xrotation Yrotation
              JOINT HandTipRight
              {
                OFFSET -1.384457 -6.456182 -1.910335
                CHANNELS 3 Zrotation Xrotation Yrotation
                End Site
                {
                  OFFSET 0 0 0
                }
              }
              JOINT ThumbRight
              {
                OFFSET -2.984054 1.463969 -1.048051
                CHANNELS 3 Zrotation Xrotation Yrotation
                End Site
                {
                  OFFSET 0 0 0
                }
              }
            }
          }
        }
      }
    }
  }
  JOINT HipLeft
  {
    OFFSET -6.632394 0.353295 -1.099916
    CHANNELS 3 Zrotation Xrotation Yrotation
    JOINT KneeLeft
    {
      OFFSET 4.882656 -26.237053 5.059507
      CHANNELS 3 Zrotation Xrotation Yrotation
      JOINT AnkleLeft
      {
        OFFSET 4.579928 -31.899532 5.960469
        CHANNELS 3 Zrotation Xrotation Yrotation
        JOINT FootLeft
        {
          OFFSET 5.213018 -6.241516 -5.532905
          CHANNELS 3 Zrotation Xrotation Yrotation
          End Site
          {
            OFFSET 0 0 0
          }
        }
      }
    }
  }
  JOINT HipRight
  {
    OFFSET 7.279983 1.515234 -5.513188
    CHANNELS 3 Zrotation Xrotation Yrotation
    JOINT KneeRight
    {
      OFFSET 8.820502 -29.786337 3.888291
      CHANNELS 3 Zrotation Xrotation Yrotation
      JOINT AnkleRight
      {
        OFFSET 1.667068 -29.897244 6.513762
        CHANNELS 3 Zrotation Xrotation Yrotation
        JOINT FootRight
        {
          OFFSET -2.947663 -4.425962 -10.501447
          CHANNELS 3 Zrotation Xrotation Yrotation
          End Site
          {
            OFFSET 0 0 0
          }
        }
      }
    }
  }
}
MOTION
Frames: 12
Frame Time: 0.033333
-34.930532 66.187591 341.365882 -0.000000 0.000000 17.600023 -0.000000 0.000000 -17.600023 -0.000000 0.000000 0.000000 -0.000000 0.000000 0.000000 0.000000 0.000000 0.000000 -0.000000 0.000000 0.000000 -0.000000 0.000000 0.000000 -0.000000 0.000000 0.000000 -0.000000 0.000000 0.000000 0.000000 0.000000 0.000000 0.000000 0.000000 0.000000 -0.000000 0.000000 0.000000 -0.000000 0.000000 0.000000 -0.000000 0.000000 0.000000 -0.000000 0.000000 0.000000 0.000000 0.000000 0.000000 0.000000 0.000000 0.000000 -0.000000 0.000000 -17.600023 -0.000000 0.000000 0.000000 -0.000000 0.000000 0.000000 0.000000 0.000000 0.000000 -0.000000 0.000000 -17.600023 -0.000000 0.000000 0.000000 -0.000000 0.000000 0.000000 0.000000 0.000000 0.000000
-34.993624 66.236859 341.303111 -0.119905 0.048081 17.771571 0.099508 -0.082385 -17.771449 -0.000000 0.000000 0.000000 -0.000000 0.000000 0.000000 0.000000 0.000000 0.000000 -0.000000 0.000000 0.000000 -0.324459 -2.554351 -0.118667 0.393549 -6.266384 -1.654822 -2.081891 7.648374 2.229144 0.000000 0.000000 0.000000 0.000000 0.000000 0.000000 -0.000000 0.000000 0.000000 1.960204 -0.528484 -0.528714 0.806287 -4.141606 1.396076 -1.982276 4.201752 -0.800954 0.000000 0.000000 0.000000 0.000000 0.000000 0.000000 0.099508 -0.082385 -17.771449 -0.000000 0.000000 0.000000 -0.716698 -0.167479 0.497650 0.000000 0.000000 0.000000 0.099508 -0.082385 -17.771449 -0.000000 0.000000 0.000000 -0.000000 0.000000 0.000000 0.000000 0.000000 0.000000
-35.039323 66.290926 341.245654 -0.211120 0.092537 17.875230 0.172526 -0.152872 -17.874829 -0.000000 0.000000 0.000000 -0.000000 0.000000 0.000000 0.000000 0.000000 0.000000 0.098224 -1.062523 0.060658 -0.682292 -3.233845 -0.246500 0.332419 -8.589353 -2.392067 -3.284128 11.165114 3.540361 0.000000 0.000000 0.000000 0.000000 0.000000 0.000000 -0.000000 0.000000 0.000000 3.465187 -0.789016 -0.941141 0.752008 -6.487579 2.433953 -2.786224 6.863635 -1.364613 0.000000 0.000000 0.000000 0.000000 0.000000 0.000000 0.172526 -0.152872 -17.874829 -0.000000 0.000000 0.000000 -1.297788 -0.311936 0.897062 0.000000 0.000000 0.000000 1.059575 0.371185 -17.559264 -0.687671 -0.767216 -0.321859 -0.000000 0.000000 0.000000 0.000000 0.000000 0.000000
-35.067630 66.349792 341.193512 -0.273767 0.133419 17.910103 0.219473 -0.211142 -17.909380 -0.000000 0.000000 0.000000 0.595511 0.526363 0.186679 0.000000 0.000000 0.000000 0.116151 -1.344386 0.076610 -0.885118 -3.859400 -0.284608 0.033884 -8.820378 -2.560812 -3.610411 12.451985 4.001840 0.000000 0.000000 0.000000 0.000000 0.000000 0.000000 -0.000000 0.000000 0.000000 4.421271 -0.729778 -1.227919 0.177009 -7.662706 3.060386 -2.729176 8.479837 -1.837891 0.000000 0.000000 0.000000 0.000000 0.000000 0.000000 0.219473 -0.211142 -17.909380 -0.000000 0.000000 0.000000 -1.743139 -0.430288 1.198601 0.000000 0.000000 0.000000 1.471296 0.540879 -17.462313 -1.034364 -2.030076 -0.526545 -0.201215 0.323730 1.102099 0.000000 0.000000 0.000000
-35.078543 66.413457 341.146685 -0.307903 0.170772 17.875558 0.240623 -0.257037 -17.874560 -0.000000 0.000000 0.000000 0.667571 0.541728 0.194767 0.000000 0.000000 0.000000 0.113026 -1.459598 0.082580 -0.988454 -3.785366 -0.258472 -0.468652 -7.823723 -2.315212 -3.094889 12.351778 3.726289 0.000000 0.000000 0.000000 0.000000 0.000000 0.000000 -0.000000 0.000000 0.000000 4.752482 -0.313652 -1.376840 -0.722104 -7.984047 3.264158 -1.955626 9.318361 -2.265649 0.000000 0.000000 0.000000 0.000000 0.000000 0.000000 0.407258 -1.132360 -17.935543 -0.428120 0.781458 0.065924 -2.052838 -0.520225 1.402713 0.000000 0.000000 0.000000 1.797939 0.698643 -17.315291 -1.273524 -2.495305 -0.657380 -0.090453 -0.525449 1.578841 0.000000 0.000000 0.000000
-35.072063 66.481921 341.105172 -0.313521 0.204633 17.771232 0.236106 -0.290558 -17.770073 -0.000000 0.000000 0.000000 0.676771 0.476856 0.176308 0.000000 0.000000 0.000000 0.088783 -1.408061 0.078511 -0.989216 -2.964067 -0.163599 -1.207655 -5.970089 -1.719530 -1.761624 11.159751 2.835253 0.000000 0.000000 0.000000 0.000000 0.000000 0.000000 -0.000000 0.000000 0.000000 4.406551 0.476224 -1.370005 -1.862727 -7.549412 3.046660 -0.500513 9.493631 -2.637449 0.000000 0.000000 0.000000 0.000000 0.000000 0.000000 0.358415 -1.254013 -17.852883 -0.514227 1.731420 0.193557 -2.129150 -1.427740 1.373875 0.000000 0.000000 0.000000 2.035347 0.843049 -17.119007 -1.453556 -2.855918 -0.762462 0.129881 -1.900924 2.132307 0.000000 0.000000 0.000000
-35.103813 66.519249 341.072172 -0.330742 0.219407 17.623789 0.248793 -0.309243 -17.622484 -0.000000 0.000000 0.000000 0.664785 0.738385 0.252006 0.000000 0.000000 0.000000 0.102523 -2.326626 0.128109 -0.975807 -1.274740 -0.132234 -2.710264 -4.269949 -1.031383 2.452829 7.760293 1.040675 0.000000 0.000000 0.000000 0.000000 0.000000 0.000000 -0.000000 0.000000 0.000000 4.723010 -0.125055 -1.391483 -4.336681 -6.140982 3.159993 2.770197 11.059943 -3.993786 0.000000 0.000000 0.000000 0.000000 0.000000 0.000000 0.303211 -1.338648 -17.730881 -0.172826 1.927039 0.282167 -2.778908 -1.769339 1.406953 0.000000 0.000000 0.000000 2.651303 0.987133 -16.809836 -2.154340 -3.336748 -0.993016 0.848853 -4.641461 3.046226 0.000000 0.000000 0.000000
-35.208327 66.613717 340.994892 -0.433776 0.296484 17.410072 0.325203 -0.412684 -17.407778 -0.000000 0.000000 0.000000 -0.000000 0.000000 0.000000 0.000000 0.000000 0.000000 0.083391 -1.803202 0.099166 -0.790046 1.311513 0.120314 -4.887971 -2.646905 -0.045630 5.396425 7.594214 -0.033163 0.000000 0.000000 0.000000 0.000000 0.000000 0.000000 0.798437 -0.799471 -0.204458 1.826625 2.393066 -0.773035 -5.500067 -3.515673 1.913649 4.863869 7.938955 -3.202290 0.000000 0.000000 0.000000 0.000000 0.000000 0.000000 0.468663 -1.486812 -17.499572 -0.084758 1.873451 0.287310 -2.874452 -1.738360 1.270816 0.000000 0.000000 0.000000 3.312748 0.796834 -16.490059 -2.819003 -3.445145 -1.125270 2.592338 -12.817546 6.411158 0.000000 0.000000 0.000000
-35.030417 66.734812 340.974811 -0.231882 0.313312 17.075444 0.129665 -0.367587 -17.074394 -0.000000 0.000000 0.000000 -0.000000 0.000000 0.000000 0.000000 0.000000 0.000000 -0.000000 0.000000 0.000000 -0.427084 4.370946 0.531070 -6.626078 2.488391 1.836651 5.919999 3.255793 -1.123386 0.000000 0.000000 0.000000 0.000000 0.000000 0.000000 1.229122 -1.305587 -0.325340 -2.634616 6.049056 0.438565 -6.372222 0.727086 -0.091448 7.481242 5.013286 -1.877766 0.000000 0.000000 0.000000 0.000000 0.000000 0.000000 0.000599 -1.319366 -17.222293 0.287321 1.806766 0.343690 -2.564147 -1.588862 1.023096 0.000000 0.000000 0.000000 2.708473 1.037257 -16.202039 -2.237746 -3.432987 -1.036639 2.105706 -10.578368 4.818829 0.000000 0.000000 0.000000
-34.637015 66.866887 340.985335 0.200225 0.305206 16.643543 -0.279255 -0.235070 -16.644649 -0.000000 0.000000 0.000000 -0.044671 -1.214512 -0.364546 0.000000 0.000000 0.000000 -0.276261 2.795454 -0.151423 0.032671 8.358604 1.182918 -7.653151 9.557342 4.166497 6.974060 -3.308451 -2.562702 0.000000 0.000000 0.000000 0.000000 0.000000 0.000000 1.586707 -1.740110 -0.425617 -7.105607 10.795158 1.861764 -10.431709 5.090244 -1.450796 13.404423 1.828610 -0.384693 0.000000 0.000000 0.000000 0.000000 0.000000 0.000000 -0.961684 -1.024763 -16.911551 0.807969 1.831762 0.445074 -1.572541 -1.207299 0.549936 0.000000 0.000000 0.000000 1.207012 1.502664 -15.921040 -0.801356 -3.294428 -0.781290 2.560118 -14.140433 6.239852 0.000000 0.000000 0.000000
-34.142488 66.992296 341.062999 0.691906 0.241698 16.074033 -0.731775 -0.040661 -16.075752 -0.000000 0.000000 0.000000 -0.381885 -2.630842 -0.813393 0.000000 0.000000 0.000000 -0.360075 4.798930 -0.251870 -0.623749 15.791655 2.358887 -5.312377 16.943526 6.227778 7.434168 -12.148400 -3.750243 0.000000 0.000000 0.000000 0.000000 0.000000 0.000000 1.726406 -1.989080 -0.479988 -12.930768 15.613658 4.195498 -9.295260 9.862342 -3.513079 12.443221 -4.656297 2.749988 0.000000 0.000000 0.000000 0.000000 0.000000 0.000000 -2.103846 -0.609748 -16.480008 1.412178 1.875980 0.565162 -1.073717 -1.054686 0.418982 0.000000 0.000000 0.000000 -0.717298 2.176262 -15.520060 0.996505 -3.135841 -0.488555 2.099792 -13.293983 5.502694 0.000000 0.000000 0.000000
-33.882226 67.077566 341.322822 0.817135 -0.047161 15.452965 -0.775036 0.263168 -15.450849 -0.000000 0.000000 0.000000 -0.697012 -4.331555 -1.355244 0.000000 0.000000 0.000000 -0.830569 9.440790 -0.463237 -0.309201 21.618101 3.529568 -4.008514 18.835018 7.354738 5.595544 -15.169804 -4.947364 0.000000 0.000000 0.000000 0.000000 0.000000 0.000000 1.646694 -2.047050 -0.489476 -19.454353 20.822363 7.307066 -6.985355 13.138468 -5.414047 9.524786 -7.685110 4.476470 0.000000 0.000000 0.000000 0.000000 0.000000 0.000000 -2.186121 0.024490 -15.810499 1.350780 1.635273 0.513976 -0.067243 -1.020626 -0.159450 0.000000 0.000000 0.000000 -1.856166 3.073274 -14.932355 2.401376 -3.151874 -0.319877 0.942263 -8.271155 2.785170 0.000000 0.000000 0.000000
